<?xml version="1.0" encoding="UTF-8" standalone="no"?>
<!-- Created with Inkscape (http://www.inkscape.org/) -->

<svg
   width="50"
   height="50"
   viewBox="0 0 13.229166 13.229167"
   version="1.1"
   id="svg5"
   xml:space="preserve"
   inkscape:version="1.2 (56b05e47e7, 2022-06-09, custom)"
   sodipodi:docname="icon.svg"
   inkscape:export-filename="../c0dab03f/icon-96.png"
   inkscape:export-xdpi="184.32001"
   inkscape:export-ydpi="184.32001"
   xmlns:inkscape="http://www.inkscape.org/namespaces/inkscape"
   xmlns:sodipodi="http://sodipodi.sourceforge.net/DTD/sodipodi-0.dtd"
   xmlns="http://www.w3.org/2000/svg"
   xmlns:svg="http://www.w3.org/2000/svg"><sodipodi:namedview
     id="namedview7"
     pagecolor="#ffffff"
     bordercolor="#111111"
     borderopacity="1"
     inkscape:showpageshadow="0"
     inkscape:pageopacity="0"
     inkscape:pagecheckerboard="1"
     inkscape:deskcolor="#d1d1d1"
     inkscape:document-units="mm"
     showgrid="false"
     inkscape:zoom="9.5144352"
     inkscape:cx="21.546208"
     inkscape:cy="1.4188966"
     inkscape:window-width="2488"
     inkscape:window-height="1376"
     inkscape:window-x="72"
     inkscape:window-y="27"
     inkscape:window-maximized="1"
     inkscape:current-layer="g2129" /><defs
     id="defs2" /><g
     inkscape:label="Layer 1"
     inkscape:groupmode="layer"
     id="layer1"><g
       id="g2006"
       transform="translate(0.64052572,-0.78162738)"><path
         style="opacity:1;fill:none;stroke:#000000;stroke-width:0.264583;stroke-linecap:round;stroke-linejoin:round;stroke-dasharray:none"
         id="path61"
         sodipodi:type="arc"
         sodipodi:cx="10.4683"
         sodipodi:cy="3.743634"
         sodipodi:rx="0.96287394"
         sodipodi:ry="1.8627216"
         sodipodi:start="3.1415927"
         sodipodi:end="0"
         sodipodi:arc-type="slice"
         d="M 9.5054259,3.743634 A 0.96287394,1.8627216 0 0 1 10.4683,1.8809124 0.96287394,1.8627216 0 0 1 11.431174,3.743634 H 10.4683 Z" /><path
         style="fill:#800000;stroke:#000000;stroke-width:0.264583px;stroke-linecap:butt;stroke-linejoin:round;stroke-opacity:1"
         d="m 10.4683,1.8809124 -8.9823821,7.48e-5 C 1.2345558,1.8747481 0.98650963,2.068187 0.80328963,2.4181693 0.62006961,2.7681516 0.51694143,3.2455172 0.51694143,3.743634 v 9.167958 l 4.49424227,-1.697604 4.4942421,1.697604 1e-7,-9.167958"
         id="path1759"
         sodipodi:nodetypes="ccsccccc" /></g><path
       id="path3029"
       style="fill:#ffffff;stroke-width:0.00818563"
       d="M 2.1264852 1.0991577 C 1.8751233 1.0929186 1.6270593 1.2866107 1.4438395 1.6365926 C 1.2606197 1.9865746 1.1575521 2.4639768 1.1575521 2.9620931 L 1.1575521 3.6690267 C 1.1575521 3.0905761 1.362187 2.5967444 1.7714681 2.1874634 C 2.1807492 1.7781823 2.6745809 1.5735474 3.2530314 1.5735474 C 3.831482 1.5735474 4.3253137 1.7781823 4.7345947 2.1874634 C 5.1438759 2.5967444 5.3485107 3.0905761 5.3485107 3.6690267 C 5.3485107 4.2474773 5.1438759 4.7413089 4.7345947 5.15059 C 4.3253137 5.5598711 3.831482 5.764506 3.2530314 5.764506 C 2.6745809 5.764506 2.1807492 5.5598711 1.7714681 5.15059 C 1.362187 4.7413089 1.1575521 4.2474773 1.1575521 3.6690267 L 1.1575521 7.9369832 C 1.3614317 8.0366467 1.5819049 8.1257052 1.8205607 8.2036336 L 2.0494873 9.7100016 C 2.0549446 9.7809422 2.0867559 9.8393149 2.1440552 9.8857015 C 2.2013545 9.9320881 2.2681606 9.9554647 2.3445597 9.9554647 L 4.1615031 9.9554647 C 4.3197585 9.9554647 4.4178592 9.8793366 4.4560588 9.7265381 C 4.5270008 9.4536844 4.606457 8.9457969 4.6937703 8.2036336 C 4.9502532 8.1217774 5.1983162 8.0180544 5.4384277 7.8925415 L 6.5680745 8.7767253 C 6.6444735 8.8258392 6.7154962 8.8506226 6.7809814 8.8506226 C 6.9010371 8.8506226 7.1575336 8.6567154 7.5504435 8.2692627 C 7.9433533 7.8818099 8.2133887 7.5869909 8.36073 7.3850789 C 8.4098439 7.3305081 8.4346273 7.2679188 8.4346273 7.1969767 C 8.4346273 7.126035 8.4070324 7.0578233 8.3524618 6.9923381 C 7.9595519 6.5121149 7.6675441 6.1355453 7.4765462 5.8626912 C 7.5856878 5.6607792 7.6922219 5.4121995 7.7959066 5.1175171 L 9.3105428 4.8885905 C 9.3760278 4.8776764 9.4301837 4.842165 9.4738403 4.782137 C 9.517497 4.7221088 9.5394694 4.6595194 9.5394694 4.5940348 L 9.5394694 2.7765747 C 9.5394693 2.7056326 9.517497 2.6416377 9.4738403 2.5843384 C 9.4301837 2.5270389 9.3732166 2.492933 9.3022746 2.482019 L 7.8041748 2.2525757 C 7.7223187 1.9906358 7.6106789 1.7234115 7.4687948 1.4505575 C 7.5334764 1.3607217 7.6271377 1.2375012 7.7344116 1.0991577 L 2.1264852 1.0991577 z " /><g
       id="g2129"
       transform="translate(0.64052572,-0.78162738)"><path
         style="opacity:1;fill:#ffffff;stroke:#000000;stroke-width:0.264583;stroke-linecap:round;stroke-linejoin:round;stroke-dasharray:none"
         id="path2125"
         sodipodi:type="arc"
         sodipodi:cx="10.4683"
         sodipodi:cy="3.743634"
         sodipodi:rx="0.96287394"
         sodipodi:ry="1.8627216"
         sodipodi:start="3.1415927"
         sodipodi:end="0"
         sodipodi:arc-type="slice"
         d="M 9.5054259,3.743634 A 0.96287394,1.8627216 0 0 1 10.4683,1.8809124 0.96287394,1.8627216 0 0 1 11.431174,3.743634 H 10.4683 Z" /></g></g></svg>
